<mxfile host="app.diagrams.net" modified="2024-02-17T15:22:41.174Z" agent="Mozilla/5.0 (Windows NT 10.0; Win64; x64) AppleWebKit/537.36 (KHTML, like Gecko) Chrome/120.0.0.0 Safari/537.36" version="23.1.5" etag="o_NFfp3BeUQfQimyZ8bX" type="github">
  <diagram name="Page-1" id="RMWyUORa3Vl2eHK_h1lL">
    <mxGraphModel>
      <root>
        <mxCell id="0" />
        <mxCell id="1" parent="0" />
      </root>
    </mxGraphModel>
  </diagram>
</mxfile>
